<svg xmlns="http://www.w3.org/2000/svg" viewBox="0 -0.5 81 77" shape-rendering="crispEdges">

<path stroke="#ffffff" d="M0 0h81M0 1h81M0 2h81M0 3h81M0 4h81M0 5h81M0 6h81M0 7h81M0 8h64M66 8h15M0 9h10M12 9h6M20 9h2M24 9h39M65 9h2M69 9h12M0 10h10M13 10h4M20 10h43M65 10h2M69 10h12M0 11h10M13 11h4M20 11h2M24 11h3M32 11h2M38 11h2M45 11h3M52 11h3M60 11h2M71 11h10M0 12h10M14 12h2M20 12h2M24 12h2M28 12h3M33 12h1M37 12h2M41 12h3M46 12h1M49 12h2M53 12h1M56 12h3M61 12h2M65 12h2M69 12h12M0 13h10M14 13h2M20 13h2M24 13h2M28 13h6M36 13h3M41 13h3M46 13h1M49 13h5M56 13h3M61 13h2M65 13h2M69 13h12M0 14h10M12 14h1M17 14h1M20 14h2M24 14h2M28 14h6M36 14h3M41 14h3M46 14h2M52 14h2M56 14h3M61 14h2M65 14h2M69 14h12M0 15h10M12 15h1M17 15h1M20 15h2M24 15h2M28 15h6M36 15h3M41 15h3M46 15h5M53 15h1M56 15h3M61 15h2M65 15h2M69 15h12M0 16h10M12 16h2M16 16h2M20 16h2M24 16h2M28 16h3M33 16h1M36 16h3M41 16h3M46 16h1M49 16h2M53 16h1M56 16h3M61 16h2M65 16h2M69 16h12M0 17h10M12 17h2M16 17h2M20 17h2M24 17h3M32 17h2M36 17h4M45 17h3M52 17h3M60 17h3M65 17h3M71 17h10M0 18h81M0 19h81M0 20h8M72 20h9M0 21h8M28 21h14M62 21h19M0 22h8M11 22h1M13 22h1M15 22h1M17 22h1M19 22h1M21 22h1M23 22h1M25 22h1M29 22h12M62 22h19M0 23h8M12 23h1M14 23h1M16 23h1M18 23h1M20 23h1M22 23h1M24 23h1M26 23h1M72 23h9M0 24h8M13 24h1M15 24h1M17 24h1M19 24h1M21 24h1M23 24h1M25 24h1M27 24h1M31 24h8M62 24h19M0 25h8M14 25h1M16 25h1M18 25h1M20 25h1M22 25h1M24 25h1M26 25h1M28 25h1M32 25h6M62 25h19M0 26h8M15 26h1M17 26h1M19 26h1M21 26h1M23 26h1M25 26h1M27 26h1M29 26h1M72 26h9M0 27h8M16 27h1M18 27h1M20 27h1M22 27h1M24 27h1M26 27h1M28 27h1M30 27h1M33 27h3M62 27h19M0 28h8M17 28h1M19 28h1M21 28h1M23 28h1M25 28h1M27 28h1M29 28h1M31 28h1M62 28h19M0 29h8M18 29h1M20 29h1M22 29h1M24 29h1M26 29h1M28 29h1M30 29h1M32 29h1M72 29h9M0 30h8M19 30h1M21 30h1M23 30h1M25 30h1M27 30h1M29 30h1M31 30h1M33 30h1M62 30h19M0 31h9M20 31h1M22 31h1M24 31h1M26 31h1M28 31h1M30 31h1M32 31h1M34 31h1M61 31h20M0 32h8M21 32h1M23 32h1M25 32h1M27 32h1M29 32h1M31 32h1M33 32h1M35 32h1M72 32h9M0 33h11M22 33h1M24 33h1M26 33h1M28 33h1M30 33h1M32 33h1M34 33h1M36 33h1M59 33h22M0 34h12M23 34h1M25 34h1M27 34h1M29 34h1M31 34h1M33 34h1M35 34h1M37 34h1M58 34h23M0 35h8M24 35h1M26 35h1M28 35h1M30 35h1M32 35h1M34 35h1M36 35h1M38 35h1M72 35h9M0 36h14M25 36h1M27 36h1M29 36h1M31 36h1M33 36h1M35 36h1M37 36h1M39 36h1M56 36h25M0 37h15M26 37h1M28 37h1M30 37h1M32 37h1M34 37h1M36 37h1M38 37h1M40 37h1M55 37h26M0 38h8M27 38h1M29 38h1M31 38h1M33 38h1M35 38h1M37 38h1M39 38h1M41 38h1M72 38h9M0 39h17M28 39h1M30 39h1M32 39h1M34 39h1M36 39h1M38 39h1M40 39h1M42 39h1M53 39h28M0 40h18M29 40h1M31 40h1M33 40h1M35 40h1M37 40h1M39 40h1M41 40h1M43 40h1M71 40h10M0 41h8M30 41h1M32 41h1M34 41h1M36 41h1M38 41h1M40 41h1M42 41h1M44 41h1M72 41h9M0 42h20M31 42h1M33 42h1M35 42h1M37 42h1M39 42h1M41 42h1M43 42h1M45 42h1M71 42h10M0 43h20M32 43h1M34 43h1M36 43h1M38 43h1M40 43h1M42 43h1M44 43h1M46 43h1M71 43h10M0 44h8M33 44h1M35 44h1M37 44h1M39 44h1M41 44h1M43 44h1M45 44h1M47 44h1M72 44h9M0 45h18M34 45h1M36 45h1M38 45h1M40 45h1M42 45h1M44 45h1M46 45h1M48 45h1M71 45h10M0 46h17M35 46h1M37 46h1M39 46h1M41 46h1M43 46h1M45 46h1M47 46h1M49 46h1M71 46h10M0 47h8M36 47h1M38 47h1M40 47h1M42 47h1M44 47h1M46 47h1M48 47h1M50 47h1M72 47h9M0 48h15M37 48h1M39 48h1M41 48h1M43 48h1M45 48h1M47 48h1M49 48h1M51 48h1M71 48h10M0 49h14M38 49h1M40 49h1M42 49h1M44 49h1M46 49h1M48 49h1M50 49h1M52 49h1M71 49h10M0 50h8M39 50h1M41 50h1M43 50h1M45 50h1M47 50h1M49 50h1M51 50h1M53 50h1M72 50h9M0 51h12M40 51h1M42 51h1M44 51h1M46 51h1M48 51h1M50 51h1M52 51h1M54 51h1M71 51h10M0 52h12M41 52h1M43 52h1M45 52h1M47 52h1M49 52h1M51 52h1M53 52h1M55 52h1M70 52h11M0 53h8M42 53h1M44 53h1M46 53h1M48 53h1M50 53h1M52 53h1M54 53h1M56 53h1M72 53h9M0 54h12M68 54h13M0 55h12M67 55h14M0 56h8M72 56h9M0 57h12M65 57h16M0 58h12M64 58h17M0 59h8M72 59h9M0 60h12M62 60h19M0 61h12M61 61h20M0 62h8M72 62h9M0 63h38M60 63h21M0 64h39M60 64h21M0 65h8M72 65h9M0 66h81M0 67h81M0 68h8M72 68h9M0 69h81M0 70h81M0 71h81M0 72h81M0 73h81M0 74h81M0 75h81M0 76h81" />
<path stroke="#000000" d="M64 8h2M10 9h2M18 9h2M22 9h2M63 9h2M67 9h2M10 10h3M17 10h3M63 10h2M67 10h2M10 11h3M17 11h3M22 11h2M27 11h5M34 11h4M40 11h5M48 11h4M55 11h5M62 11h9M10 12h4M16 12h4M22 12h2M26 12h2M31 12h2M34 12h3M39 12h2M44 12h2M47 12h2M51 12h2M54 12h2M59 12h2M63 12h2M67 12h2M10 13h4M16 13h4M22 13h2M26 13h2M34 13h2M39 13h2M44 13h2M47 13h2M54 13h2M59 13h2M63 13h2M67 13h2M10 14h2M13 14h4M18 14h2M22 14h2M26 14h2M34 14h2M39 14h2M44 14h2M48 14h4M54 14h2M59 14h2M63 14h2M67 14h2M10 15h2M13 15h4M18 15h2M22 15h2M26 15h2M34 15h2M39 15h2M44 15h2M51 15h2M54 15h2M59 15h2M63 15h2M67 15h2M10 16h2M14 16h2M18 16h2M22 16h2M26 16h2M31 16h2M34 16h2M39 16h2M44 16h2M47 16h2M51 16h2M54 16h2M59 16h2M63 16h2M67 16h2M10 17h2M14 17h2M18 17h2M22 17h2M27 17h5M34 17h2M40 17h5M48 17h4M55 17h5M63 17h2M68 17h3M8 21h19M43 21h19M8 22h2M27 22h1M42 22h1M60 22h2M8 23h1M10 23h1M28 23h1M41 23h1M59 23h1M61 23h1M8 24h1M11 24h1M29 24h1M40 24h1M58 24h1M61 24h1M8 25h1M12 25h1M30 25h1M39 25h1M57 25h1M61 25h1M8 26h1M13 26h1M31 26h1M38 26h1M56 26h1M61 26h1M8 27h1M14 27h1M32 27h1M37 27h1M55 27h1M61 27h1M8 28h1M15 28h1M33 28h1M36 28h1M54 28h1M61 28h1M8 29h1M16 29h1M34 29h2M53 29h1M61 29h1M9 30h1M17 30h1M35 30h1M52 30h1M60 30h1M10 31h1M18 31h1M36 31h1M51 31h1M59 31h1M11 32h1M19 32h1M37 32h1M50 32h1M58 32h1M12 33h1M20 33h1M38 33h1M49 33h1M57 33h1M13 34h1M21 34h1M39 34h1M48 34h1M56 34h1M14 35h1M22 35h1M40 35h1M47 35h1M55 35h1M15 36h1M23 36h1M41 36h1M46 36h1M54 36h1M16 37h1M24 37h1M42 37h1M45 37h1M53 37h1M17 38h1M25 38h1M43 38h2M52 38h1M18 39h1M26 39h1M44 39h1M51 39h1M19 40h1M27 40h1M45 40h26M20 41h1M23 41h2M28 41h1M46 41h1M69 41h2M21 42h2M25 42h1M29 42h1M47 42h1M68 42h1M70 42h1M21 43h1M26 43h1M30 43h1M48 43h1M67 43h1M70 43h1M20 44h1M27 44h1M31 44h1M49 44h1M66 44h1M70 44h1M19 45h1M28 45h1M32 45h1M50 45h1M65 45h1M70 45h1M18 46h1M29 46h1M33 46h1M51 46h1M64 46h1M70 46h1M17 47h1M30 47h1M34 47h1M52 47h1M63 47h1M70 47h1M16 48h1M31 48h1M35 48h1M53 48h1M62 48h1M70 48h1M15 49h1M32 49h1M36 49h1M54 49h1M61 49h1M70 49h1M14 50h1M33 50h1M37 50h1M55 50h1M60 50h1M70 50h1M13 51h1M34 51h1M38 51h1M56 51h1M59 51h1M69 51h1M12 52h1M35 52h1M39 52h1M57 52h2M68 52h1M12 53h25M40 53h1M58 53h1M67 53h1M12 54h1M36 54h1M41 54h19M66 54h1M12 55h1M36 55h1M41 55h1M59 55h1M65 55h1M12 56h1M36 56h1M41 56h1M59 56h1M64 56h1M12 57h1M36 57h1M41 57h1M59 57h1M63 57h1M12 58h1M36 58h1M41 58h1M59 58h1M62 58h1M12 59h1M36 59h1M41 59h1M59 59h1M61 59h1M12 60h1M36 60h1M41 60h1M59 60h2M12 61h26M41 61h1M59 61h1M38 62h1M41 62h1M59 62h1M39 63h1M41 63h1M59 63h1M40 64h2M59 64h1M41 65h19" />
<path stroke="#d4d4d4" d="M8 20h64M27 21h1M42 21h1M28 22h1M41 22h1M43 22h17M29 23h12M42 23h17M62 23h10M9 24h1M30 24h1M39 24h1M41 24h17M10 25h1M31 25h1M38 25h1M40 25h17M9 26h1M11 26h1M32 26h6M39 26h17M62 26h10M10 27h1M12 27h1M36 27h1M38 27h17M9 28h1M11 28h1M13 28h1M34 28h2M37 28h17M10 29h1M12 29h1M14 29h1M37 29h16M62 29h10M8 30h1M11 30h1M13 30h1M15 30h1M38 30h14M61 30h1M9 31h1M12 31h1M14 31h1M16 31h1M39 31h12M60 31h1M8 32h3M13 32h1M15 32h1M17 32h1M40 32h10M59 32h13M11 33h1M14 33h1M16 33h1M18 33h1M41 33h8M58 33h1M12 34h1M15 34h1M17 34h1M19 34h1M42 34h6M57 34h1M8 35h6M16 35h1M18 35h1M20 35h1M43 35h4M56 35h16M14 36h1M17 36h1M19 36h1M21 36h1M44 36h2M55 36h1M15 37h1M18 37h1M20 37h1M22 37h1M54 37h1M8 38h9M19 38h1M21 38h1M23 38h1M53 38h19M17 39h1M20 39h1M22 39h1M24 39h1M52 39h1M18 40h1M21 40h1M23 40h1M25 40h1M8 41h12M22 41h1M26 41h1M49 41h20M71 41h1M20 42h1M23 42h2M27 42h1M50 42h18M20 43h1M22 43h4M28 43h1M51 43h16M8 44h12M21 44h6M29 44h1M52 44h14M71 44h1M18 45h1M20 45h8M30 45h1M53 45h12M17 46h1M19 46h10M31 46h1M54 46h10M8 47h9M18 47h12M32 47h1M55 47h8M71 47h1M15 48h1M17 48h14M33 48h1M56 48h6M14 49h1M16 49h16M34 49h1M57 49h4M8 50h6M15 50h18M35 50h1M58 50h2M71 50h1M12 51h1M14 51h20M36 51h1M70 51h1M13 52h22M37 52h1M69 52h1M8 53h4M38 53h1M68 53h4M37 54h1M39 54h1M67 54h1M38 55h1M40 55h1M66 55h1M8 56h4M37 56h1M39 56h1M65 56h7M38 57h1M40 57h1M64 57h1M37 58h1M39 58h1M63 58h1M8 59h4M38 59h1M40 59h1M62 59h10M37 60h1M39 60h1M61 60h1M38 61h1M40 61h1M60 61h1M8 62h30M39 62h1M60 62h12M38 63h1M40 63h1M39 64h1M8 65h33M60 65h12M8 68h64" />
<path stroke="#00fdff" d="M10 22h1M12 22h1M14 22h1M16 22h1M18 22h1M20 22h1M22 22h1M24 22h1M26 22h1M9 23h1M11 23h1M13 23h1M15 23h1M17 23h1M19 23h1M21 23h1M23 23h1M25 23h1M27 23h1M10 24h1M12 24h1M14 24h1M16 24h1M18 24h1M20 24h1M22 24h1M24 24h1M26 24h1M28 24h1M9 25h1M11 25h1M13 25h1M15 25h1M17 25h1M19 25h1M21 25h1M23 25h1M25 25h1M27 25h1M29 25h1M10 26h1M12 26h1M14 26h1M16 26h1M18 26h1M20 26h1M22 26h1M24 26h1M26 26h1M28 26h1M30 26h1M9 27h1M11 27h1M13 27h1M15 27h1M17 27h1M19 27h1M21 27h1M23 27h1M25 27h1M27 27h1M29 27h1M31 27h1M10 28h1M12 28h1M14 28h1M16 28h1M18 28h1M20 28h1M22 28h1M24 28h1M26 28h1M28 28h1M30 28h1M32 28h1M9 29h1M11 29h1M13 29h1M15 29h1M17 29h1M19 29h1M21 29h1M23 29h1M25 29h1M27 29h1M29 29h1M31 29h1M33 29h1M10 30h1M12 30h1M14 30h1M16 30h1M18 30h1M20 30h1M22 30h1M24 30h1M26 30h1M28 30h1M30 30h1M32 30h1M34 30h1M11 31h1M13 31h1M15 31h1M17 31h1M19 31h1M21 31h1M23 31h1M25 31h1M27 31h1M29 31h1M31 31h1M33 31h1M35 31h1M12 32h1M14 32h1M16 32h1M18 32h1M20 32h1M22 32h1M24 32h1M26 32h1M28 32h1M30 32h1M32 32h1M34 32h1M36 32h1M13 33h1M15 33h1M17 33h1M19 33h1M21 33h1M23 33h1M25 33h1M27 33h1M29 33h1M31 33h1M33 33h1M35 33h1M37 33h1M14 34h1M16 34h1M18 34h1M20 34h1M22 34h1M24 34h1M26 34h1M28 34h1M30 34h1M32 34h1M34 34h1M36 34h1M38 34h1M15 35h1M17 35h1M19 35h1M21 35h1M23 35h1M25 35h1M27 35h1M29 35h1M31 35h1M33 35h1M35 35h1M37 35h1M39 35h1M16 36h1M18 36h1M20 36h1M22 36h1M24 36h1M26 36h1M28 36h1M30 36h1M32 36h1M34 36h1M36 36h1M38 36h1M40 36h1M17 37h1M19 37h1M21 37h1M23 37h1M25 37h1M27 37h1M29 37h1M31 37h1M33 37h1M35 37h1M37 37h1M39 37h1M41 37h1M18 38h1M20 38h1M22 38h1M24 38h1M26 38h1M28 38h1M30 38h1M32 38h1M34 38h1M36 38h1M38 38h1M40 38h1M42 38h1M19 39h1M21 39h1M23 39h1M25 39h1M27 39h1M29 39h1M31 39h1M33 39h1M35 39h1M37 39h1M39 39h1M41 39h1M43 39h1M20 40h1M22 40h1M24 40h1M26 40h1M28 40h1M30 40h1M32 40h1M34 40h1M36 40h1M38 40h1M40 40h1M42 40h1M44 40h1M21 41h1M25 41h1M27 41h1M29 41h1M31 41h1M33 41h1M35 41h1M37 41h1M39 41h1M41 41h1M43 41h1M45 41h1M26 42h1M28 42h1M30 42h1M32 42h1M34 42h1M36 42h1M38 42h1M40 42h1M42 42h1M44 42h1M46 42h1M27 43h1M29 43h1M31 43h1M33 43h1M35 43h1M37 43h1M39 43h1M41 43h1M43 43h1M45 43h1M47 43h1M28 44h1M30 44h1M32 44h1M34 44h1M36 44h1M38 44h1M40 44h1M42 44h1M44 44h1M46 44h1M48 44h1M29 45h1M31 45h1M33 45h1M35 45h1M37 45h1M39 45h1M41 45h1M43 45h1M45 45h1M47 45h1M49 45h1M30 46h1M32 46h1M34 46h1M36 46h1M38 46h1M40 46h1M42 46h1M44 46h1M46 46h1M48 46h1M50 46h1M31 47h1M33 47h1M35 47h1M37 47h1M39 47h1M41 47h1M43 47h1M45 47h1M47 47h1M49 47h1M51 47h1M32 48h1M34 48h1M36 48h1M38 48h1M40 48h1M42 48h1M44 48h1M46 48h1M48 48h1M50 48h1M52 48h1M33 49h1M35 49h1M37 49h1M39 49h1M41 49h1M43 49h1M45 49h1M47 49h1M49 49h1M51 49h1M53 49h1M34 50h1M36 50h1M38 50h1M40 50h1M42 50h1M44 50h1M46 50h1M48 50h1M50 50h1M52 50h1M54 50h1M35 51h1M37 51h1M39 51h1M41 51h1M43 51h1M45 51h1M47 51h1M49 51h1M51 51h1M53 51h1M55 51h1M36 52h1M38 52h1M40 52h1M42 52h1M44 52h1M46 52h1M48 52h1M50 52h1M52 52h1M54 52h1M56 52h1M37 53h1M39 53h1M41 53h1M43 53h1M45 53h1M47 53h1M49 53h1M51 53h1M53 53h1M55 53h1M57 53h1M38 54h1M40 54h1M37 55h1M39 55h1M38 56h1M40 56h1M37 57h1M39 57h1M38 58h1M40 58h1M37 59h1M39 59h1M38 60h1M40 60h1M39 61h1M40 62h1" />
<path stroke="#818181" d="M60 23h1M59 24h2M58 25h3M57 26h4M56 27h5M55 28h6M36 29h1M54 29h7M36 30h2M53 30h7M37 31h2M52 31h7M38 32h2M51 32h7M39 33h2M50 33h7M40 34h2M49 34h7M41 35h2M48 35h7M42 36h2M47 36h7M43 37h2M46 37h7M45 38h7M45 39h6M47 41h2M48 42h2M69 42h1M49 43h2M68 43h2M50 44h2M67 44h3M51 45h2M66 45h4M52 46h2M65 46h5M53 47h2M64 47h6M54 48h2M63 48h7M55 49h2M62 49h8M56 50h2M61 50h9M57 51h2M60 51h9M59 52h9M59 53h8M13 54h23M60 54h6M13 55h23M60 55h5M13 56h23M60 56h4M13 57h23M60 57h3M13 58h23M60 58h2M13 59h23M60 59h1M13 60h23" />
<path stroke="#009d9e" d="M42 55h17M42 56h17M42 57h17M42 58h17M42 59h17M42 60h17M42 61h17M42 62h17M42 63h17M42 64h17" />
</svg>