<?xml version="1.0" encoding="UTF-8"?>
<svg id="svg8" width="2634.2pt" height="750pt" version="1.1" viewBox="0 0 3512.3 1e3" xmlns="http://www.w3.org/2000/svg" xmlns:cc="http://creativecommons.org/ns#" xmlns:dc="http://purl.org/dc/elements/1.1/" xmlns:rdf="http://www.w3.org/1999/02/22-rdf-syntax-ns#">
 <metadata id="metadata5">
  <rdf:RDF>
   <cc:Work rdf:about="">
    <dc:format>image/svg+xml</dc:format>
    <dc:type rdf:resource="http://purl.org/dc/dcmitype/StillImage"/>
    <dc:title/>
   </cc:Work>
  </rdf:RDF>
 </metadata>
 <g id="g3445" transform="matrix(1.9657 0 0 1.9657 3.9315e-6 3.617e-5)">
  <path id="path444" d="m115.28 279.43h26.34c35.684 0 40.107 33.199 40.107 67.664 0 49.425-4.4232 68.261-42.641 68.261h-23.806zm-115.28 221.16h163.53c102.73 0 133.44-64.558 133.44-148.47 0-63.291-19.432-105.26-75.84-115.28v-1.2425c55.762-18.836 63.341-65.18 63.341-117.81 0-85.879-40.753-117.79-124.72-117.79h-159.76zm115.28-415.36h25.669c28.254 0 35.733 19.407 35.733 54.494 0 31.31-3.7771 58.271-40.132 58.271h-21.271v-112.77"/>
  <path id="path446" d="m423.51 198.62c0-13.766 0-32.627 24.477-32.627 24.402 0 24.402 18.861 24.402 32.627v203.57c0 13.841 0 32.577-24.402 32.577-24.477 0-24.477-18.736-24.477-32.577zm-107.77 196.09c0 46.965 24.427 114.01 132.25 114.01 107.72 0 132.15-67.043 132.15-114.01v-188.58c0-46.965-24.427-114.03-132.15-114.03-107.82 0-132.25 67.068-132.25 114.03v188.58"/>
  <path id="path448" d="m610.22 100.24h102.08v70.796h1.2425c15.059-36.951 28.179-78.946 77.058-78.946v130.26h-25.073c-36.926 0-47.561 23.234-47.561 50.817v227.42h-107.75v-400.35"/>
  <path id="path450" d="m811.92-1.84e-5h107.77v500.59h-107.77z"/>
  <path id="path452" d="m1106.4 407.2c0 19.457-8.1754 35.062-25.048 35.062-15.009 0-23.806-9.393-23.806-31.931v-53.202c0-15.68 6.3118-26.34 18.786-35.733l30.068-21.917zm103.97-189.77c0-86.475-33.174-125.34-130.31-125.34-73.877 0-126.51 38.864-126.51 97.707v36.305h100.27v-32.528c0-16.873 8.1008-27.583 27.533-27.583 20.053 0 25.048 11.952 25.048 33.273 0 43.163-38.815 52.581-78.896 69.478-39.51 17.568-81.506 42.641-81.506 117.81 0 64.534 8.7718 122.16 87.743 122.16 30.117 0 60.16-14.413 76.461-38.864h1.2673v30.739h98.9v-283.16"/>
  <path id="path454" d="m1234.2 100.24h103.99v44.505h1.2425c19.432-33.894 40.728-52.656 82.052-52.656 51.388 0 77.107 37.547 77.107 85.854v322.64h-107.77v-273.79c0-14.413 0-38.218-24.476-38.218-24.402 0-24.402 28.85-24.402 38.218v273.79h-107.75v-400.35"/>
  <path id="path456" d="m1679 362.1c0 27.583 0 65.18-27.583 65.18-10.611 0-21.271-5.6656-21.271-26.315v-202.97c0-16.301 11.306-24.477 21.271-24.477 22.563 0 27.583 26.365 27.583 50.767zm107.75-362.1h-107.75v136.6h-1.2673c-16.276-30.689-38.193-44.505-77.033-44.505-52.631 0-78.325 37.547-78.325 101.48v195.49c0 75.169 29.446 119.65 80.139 119.65 35.162 0 62.073-17.544 75.219-48.232h1.2673v40.107h107.75v-500.59"/>
 </g>
</svg>
